solid KlammerFlat2m
facet normal -0.0 -0.0 1.0
  outer loop
    vertex 7.5 25.999999999999996 9.999999999999998
    vertex 6.0 28.000000000000004 9.999999999999998
    vertex 6.0 25.999999999999996 9.999999999999998
  endloop
endfacet
facet normal -0.0 -0.0 1.0
  outer loop
    vertex 6.0 28.000000000000004 9.999999999999998
    vertex 7.5 25.999999999999996 9.999999999999998
    vertex 21.999999999999996 28.000000000000004 9.999999999999998
  endloop
endfacet
facet normal -0.0 -0.0 1.0
  outer loop
    vertex 21.999999999999996 28.000000000000004 9.999999999999998
    vertex 7.5 25.999999999999996 9.999999999999998
    vertex 19.999999999999996 25.999999999999996 9.999999999999998
  endloop
endfacet
facet normal -0.0 -0.0 1.0
  outer loop
    vertex 21.999999999999996 28.000000000000004 9.999999999999998
    vertex 19.999999999999996 25.999999999999996 9.999999999999998
    vertex 21.999999999999996 25.999999999999996 9.999999999999998
  endloop
endfacet
facet normal 0.0 -1.0 0.0
  outer loop
    vertex 7.5 25.499999999999993 9.999999999999998
    vertex 6.0 25.499999999999993 0.0
    vertex 7.5 25.499999999999993 0.0
  endloop
endfacet
facet normal 0.0 -1.0 0.0
  outer loop
    vertex 6.0 25.499999999999993 0.0
    vertex 7.5 25.499999999999993 9.999999999999998
    vertex 6.0 25.499999999999993 9.999999999999998
  endloop
endfacet
facet normal -0.0 -0.0 1.0
  outer loop
    vertex 7.5 25.499999999999993 9.999999999999998
    vertex 6.0 25.999999999999996 9.999999999999998
    vertex 6.0 25.499999999999993 9.999999999999998
  endloop
endfacet
facet normal -0.0 -0.0 1.0
  outer loop
    vertex 6.0 25.999999999999996 9.999999999999998
    vertex 7.5 25.499999999999993 9.999999999999998
    vertex 7.5 25.999999999999996 9.999999999999998
  endloop
endfacet
facet normal -0.0 -1.0 -0.0
  outer loop
    vertex 19.999999999999996 25.999999999999996 9.999999999999998
    vertex 7.5 25.999999999999996 0.0
    vertex 19.999999999999996 25.999999999999996 0.0
  endloop
endfacet
facet normal -0.0 -1.0 -0.0
  outer loop
    vertex 7.5 25.999999999999996 0.0
    vertex 19.999999999999996 25.999999999999996 9.999999999999998
    vertex 7.5 25.999999999999996 9.999999999999998
  endloop
endfacet
facet normal 0.0 0.0 -1.0
  outer loop
    vertex 19.999999999999996 25.999999999999996 0.0
    vertex 19.999999999999996 -3.9999999999999996 0.0
    vertex 19.999999999999993 -1.9999999999999998 0.0
  endloop
endfacet
facet normal 0.0 0.0 -1.0
  outer loop
    vertex 19.999999999999996 -3.9999999999999996 0.0
    vertex 19.999999999999996 25.999999999999996 0.0
    vertex 21.999999999999996 25.999999999999996 0.0
  endloop
endfacet
facet normal 0.0 0.0 -1.0
  outer loop
    vertex 19.999999999999996 -3.9999999999999996 0.0
    vertex 21.999999999999996 25.999999999999996 0.0
    vertex 21.999999999999996 -3.9999999999999996 0.0
  endloop
endfacet
facet normal -0.0 -0.0 1.0
  outer loop
    vertex 19.999999999999996 -3.9999999999999996 9.999999999999998
    vertex 0.0 -1.9999999999999998 9.999999999999998
    vertex 0.0 -3.9999999999999996 9.999999999999998
  endloop
endfacet
facet normal -0.0 -0.0 1.0
  outer loop
    vertex 0.0 -1.9999999999999998 9.999999999999998
    vertex 19.999999999999996 -3.9999999999999996 9.999999999999998
    vertex 19.999999999999993 -1.9999999999999998 9.999999999999998
  endloop
endfacet
facet normal 1.0 -0.0 -0.0
  outer loop
    vertex 21.999999999999996 28.000000000000004 0.0
    vertex 21.999999999999996 25.999999999999996 9.999999999999998
    vertex 21.999999999999996 25.999999999999996 0.0
  endloop
endfacet
facet normal 1.0 -0.0 -0.0
  outer loop
    vertex 21.999999999999996 25.999999999999996 9.999999999999998
    vertex 21.999999999999996 28.000000000000004 0.0
    vertex 21.999999999999996 28.000000000000004 9.999999999999998
  endloop
endfacet
facet normal 1.0 -0.0 -0.0
  outer loop
    vertex 7.5 25.999999999999996 0.0
    vertex 7.5 25.499999999999993 9.999999999999998
    vertex 7.5 25.499999999999993 0.0
  endloop
endfacet
facet normal 1.0 -0.0 -0.0
  outer loop
    vertex 7.5 25.499999999999993 9.999999999999998
    vertex 7.5 25.999999999999996 0.0
    vertex 7.5 25.999999999999996 9.999999999999998
  endloop
endfacet
facet normal -1.0 -0.0 -0.0
  outer loop
    vertex 6.0 28.000000000000004 9.999999999999998
    vertex 6.0 25.999999999999996 0.0
    vertex 6.0 25.999999999999996 9.999999999999998
  endloop
endfacet
facet normal -1.0 -0.0 -0.0
  outer loop
    vertex 6.0 25.999999999999996 0.0
    vertex 6.0 28.000000000000004 9.999999999999998
    vertex 6.0 28.000000000000004 0.0
  endloop
endfacet
facet normal 0.0 1.0 0.0
  outer loop
    vertex 6.0 28.000000000000004 9.999999999999998
    vertex 21.999999999999996 28.000000000000004 0.0
    vertex 6.0 28.000000000000004 0.0
  endloop
endfacet
facet normal 0.0 1.0 0.0
  outer loop
    vertex 21.999999999999996 28.000000000000004 0.0
    vertex 6.0 28.000000000000004 9.999999999999998
    vertex 21.999999999999996 28.000000000000004 9.999999999999998
  endloop
endfacet
facet normal 0.0 0.0 -1.0
  outer loop
    vertex 19.999999999999993 -1.9999999999999998 0.0
    vertex 0.0 -3.9999999999999996 0.0
    vertex 0.0 -1.9999999999999998 0.0
  endloop
endfacet
facet normal 0.0 0.0 -1.0
  outer loop
    vertex 0.0 -3.9999999999999996 0.0
    vertex 19.999999999999993 -1.9999999999999998 0.0
    vertex 19.999999999999996 -3.9999999999999996 0.0
  endloop
endfacet
facet normal 0.0 0.0 -1.0
  outer loop
    vertex 21.999999999999996 28.000000000000004 0.0
    vertex 6.0 25.999999999999996 0.0
    vertex 6.0 28.000000000000004 0.0
  endloop
endfacet
facet normal 0.0 0.0 -1.0
  outer loop
    vertex 6.0 25.999999999999996 0.0
    vertex 21.999999999999996 28.000000000000004 0.0
    vertex 7.5 25.999999999999996 0.0
  endloop
endfacet
facet normal 0.0 0.0 -1.0
  outer loop
    vertex 7.5 25.999999999999996 0.0
    vertex 21.999999999999996 28.000000000000004 0.0
    vertex 19.999999999999996 25.999999999999996 0.0
  endloop
endfacet
facet normal 0.0 0.0 -1.0
  outer loop
    vertex 19.999999999999996 25.999999999999996 0.0
    vertex 21.999999999999996 28.000000000000004 0.0
    vertex 21.999999999999996 25.999999999999996 0.0
  endloop
endfacet
facet normal -1.0 0.0 0.0
  outer loop
    vertex 6.0 25.999999999999996 9.999999999999998
    vertex 6.0 25.499999999999993 0.0
    vertex 6.0 25.499999999999993 9.999999999999998
  endloop
endfacet
facet normal -1.0 0.0 0.0
  outer loop
    vertex 6.0 25.499999999999993 0.0
    vertex 6.0 25.999999999999996 9.999999999999998
    vertex 6.0 25.999999999999996 0.0
  endloop
endfacet
facet normal 0.0 0.0 -1.0
  outer loop
    vertex 7.5 25.999999999999996 0.0
    vertex 6.0 25.499999999999993 0.0
    vertex 6.0 25.999999999999996 0.0
  endloop
endfacet
facet normal 0.0 0.0 -1.0
  outer loop
    vertex 6.0 25.499999999999993 0.0
    vertex 7.5 25.999999999999996 0.0
    vertex 7.5 25.499999999999993 0.0
  endloop
endfacet
facet normal -0.0 1.0 -0.0
  outer loop
    vertex 0.0 -1.9999999999999998 9.999999999999998
    vertex 19.999999999999993 -1.9999999999999998 0.0
    vertex 0.0 -1.9999999999999998 0.0
  endloop
endfacet
facet normal -0.0 1.0 -0.0
  outer loop
    vertex 19.999999999999993 -1.9999999999999998 0.0
    vertex 0.0 -1.9999999999999998 9.999999999999998
    vertex 19.999999999999993 -1.9999999999999998 9.999999999999998
  endloop
endfacet
facet normal -0.0 -0.0 1.0
  outer loop
    vertex 19.999999999999996 -3.9999999999999996 9.999999999999998
    vertex 19.999999999999996 25.999999999999996 9.999999999999998
    vertex 19.999999999999993 -1.9999999999999998 9.999999999999998
  endloop
endfacet
facet normal -0.0 -0.0 1.0
  outer loop
    vertex 19.999999999999996 25.999999999999996 9.999999999999998
    vertex 19.999999999999996 -3.9999999999999996 9.999999999999998
    vertex 21.999999999999996 -3.9999999999999996 9.999999999999998
  endloop
endfacet
facet normal -0.0 -0.0 1.0
  outer loop
    vertex 19.999999999999996 25.999999999999996 9.999999999999998
    vertex 21.999999999999996 -3.9999999999999996 9.999999999999998
    vertex 21.999999999999996 25.999999999999996 9.999999999999998
  endloop
endfacet
facet normal 0.0 -1.0 0.0
  outer loop
    vertex 19.999999999999996 -3.9999999999999996 9.999999999999998
    vertex 0.0 -3.9999999999999996 0.0
    vertex 19.999999999999996 -3.9999999999999996 0.0
  endloop
endfacet
facet normal 0.0 -1.0 0.0
  outer loop
    vertex 0.0 -3.9999999999999996 0.0
    vertex 19.999999999999996 -3.9999999999999996 9.999999999999998
    vertex 0.0 -3.9999999999999996 9.999999999999998
  endloop
endfacet
facet normal -1.0 1.0071308866242491e-16 0.0
  outer loop
    vertex 19.999999999999996 25.999999999999996 9.999999999999998
    vertex 19.999999999999993 -1.9999999999999998 0.0
    vertex 19.999999999999993 -1.9999999999999998 9.999999999999998
  endloop
endfacet
facet normal -1.0 1.0071308866242491e-16 0.0
  outer loop
    vertex 19.999999999999993 -1.9999999999999998 0.0
    vertex 19.999999999999996 25.999999999999996 9.999999999999998
    vertex 19.999999999999996 25.999999999999996 0.0
  endloop
endfacet
facet normal 0.0 -1.0 0.0
  outer loop
    vertex 21.999999999999996 -3.9999999999999996 9.999999999999998
    vertex 19.999999999999996 -3.9999999999999996 0.0
    vertex 21.999999999999996 -3.9999999999999996 0.0
  endloop
endfacet
facet normal 0.0 -1.0 0.0
  outer loop
    vertex 19.999999999999996 -3.9999999999999996 0.0
    vertex 21.999999999999996 -3.9999999999999996 9.999999999999998
    vertex 19.999999999999996 -3.9999999999999996 9.999999999999998
  endloop
endfacet
facet normal -1.0 0.0 0.0
  outer loop
    vertex 0.0 -1.9999999999999998 9.999999999999998
    vertex 0.0 -3.9999999999999996 0.0
    vertex 0.0 -3.9999999999999996 9.999999999999998
  endloop
endfacet
facet normal -1.0 0.0 0.0
  outer loop
    vertex 0.0 -3.9999999999999996 0.0
    vertex 0.0 -1.9999999999999998 9.999999999999998
    vertex 0.0 -1.9999999999999998 0.0
  endloop
endfacet
facet normal 1.0 -0.0 -0.0
  outer loop
    vertex 21.999999999999996 25.999999999999996 0.0
    vertex 21.999999999999996 -3.9999999999999996 9.999999999999998
    vertex 21.999999999999996 -3.9999999999999996 0.0
  endloop
endfacet
facet normal 1.0 -0.0 -0.0
  outer loop
    vertex 21.999999999999996 -3.9999999999999996 9.999999999999998
    vertex 21.999999999999996 25.999999999999996 0.0
    vertex 21.999999999999996 25.999999999999996 9.999999999999998
  endloop
endfacet
endsolid KlammerFlat2m
