solid KlammerFlat
facet normal -0.0 -0.0 1.0
  outer loop
    vertex 7.5 25.999999999999996 9.999999999999998
    vertex 6.0 29.000000000000004 9.999999999999998
    vertex 6.0 25.999999999999996 9.999999999999998
  endloop
endfacet
facet normal -0.0 -0.0 1.0
  outer loop
    vertex 6.0 29.000000000000004 9.999999999999998
    vertex 7.5 25.999999999999996 9.999999999999998
    vertex 22.999999999999996 29.000000000000004 9.999999999999998
  endloop
endfacet
facet normal -0.0 -0.0 1.0
  outer loop
    vertex 22.999999999999996 29.000000000000004 9.999999999999998
    vertex 7.5 25.999999999999996 9.999999999999998
    vertex 19.999999999999996 25.999999999999996 9.999999999999998
  endloop
endfacet
facet normal -0.0 -0.0 1.0
  outer loop
    vertex 22.999999999999996 29.000000000000004 9.999999999999998
    vertex 19.999999999999996 25.999999999999996 9.999999999999998
    vertex 22.999999999999996 25.999999999999996 9.999999999999998
  endloop
endfacet
facet normal -0.0 -1.0 -0.0
  outer loop
    vertex 7.5 24.499999999999993 9.999999999999998
    vertex 6.0 24.499999999999993 0.0
    vertex 7.5 24.499999999999993 0.0
  endloop
endfacet
facet normal -0.0 -1.0 -0.0
  outer loop
    vertex 6.0 24.499999999999993 0.0
    vertex 7.5 24.499999999999993 9.999999999999998
    vertex 6.0 24.499999999999993 9.999999999999998
  endloop
endfacet
facet normal 0.0 0.0 1.0
  outer loop
    vertex 7.5 24.499999999999993 9.999999999999998
    vertex 6.0 25.999999999999996 9.999999999999998
    vertex 6.0 24.499999999999993 9.999999999999998
  endloop
endfacet
facet normal 0.0 0.0 1.0
  outer loop
    vertex 6.0 25.999999999999996 9.999999999999998
    vertex 7.5 24.499999999999993 9.999999999999998
    vertex 7.5 25.999999999999996 9.999999999999998
  endloop
endfacet
facet normal -1.0 0.0 0.0
  outer loop
    vertex 0.0 5.0 9.999999999999998
    vertex 0.0 1.9999999999999998 0.0
    vertex 0.0 1.9999999999999998 9.999999999999998
  endloop
endfacet
facet normal -1.0 0.0 0.0
  outer loop
    vertex 0.0 1.9999999999999998 0.0
    vertex 0.0 5.0 9.999999999999998
    vertex 0.0 5.0 0.0
  endloop
endfacet
facet normal 1.0 -0.0 -0.0
  outer loop
    vertex 22.999999999999996 25.999999999999996 0.0
    vertex 22.999999999999996 1.9999999999999998 9.999999999999998
    vertex 22.999999999999996 1.9999999999999998 0.0
  endloop
endfacet
facet normal 1.0 -0.0 -0.0
  outer loop
    vertex 22.999999999999996 1.9999999999999998 9.999999999999998
    vertex 22.999999999999996 25.999999999999996 0.0
    vertex 22.999999999999996 25.999999999999996 9.999999999999998
  endloop
endfacet
facet normal -0.0 -1.0 -0.0
  outer loop
    vertex 19.999999999999996 25.999999999999996 9.999999999999998
    vertex 7.5 25.999999999999996 0.0
    vertex 19.999999999999996 25.999999999999996 0.0
  endloop
endfacet
facet normal -0.0 -1.0 -0.0
  outer loop
    vertex 7.5 25.999999999999996 0.0
    vertex 19.999999999999996 25.999999999999996 9.999999999999998
    vertex 7.5 25.999999999999996 9.999999999999998
  endloop
endfacet
facet normal 0.0 0.0 -1.0
  outer loop
    vertex 22.999999999999996 25.999999999999996 0.0
    vertex 19.999999999999996 5.0 0.0
    vertex 19.999999999999996 25.999999999999996 0.0
  endloop
endfacet
facet normal 0.0 0.0 -1.0
  outer loop
    vertex 19.999999999999996 5.0 0.0
    vertex 22.999999999999996 25.999999999999996 0.0
    vertex 19.999999999999996 1.9999999999999998 0.0
  endloop
endfacet
facet normal 0.0 0.0 -1.0
  outer loop
    vertex 19.999999999999996 1.9999999999999998 0.0
    vertex 22.999999999999996 25.999999999999996 0.0
    vertex 22.999999999999996 1.9999999999999998 0.0
  endloop
endfacet
facet normal 0.0 0.0 1.0
  outer loop
    vertex 19.999999999999996 1.9999999999999998 9.999999999999998
    vertex 0.0 5.0 9.999999999999998
    vertex 0.0 1.9999999999999998 9.999999999999998
  endloop
endfacet
facet normal 0.0 0.0 1.0
  outer loop
    vertex 0.0 5.0 9.999999999999998
    vertex 19.999999999999996 1.9999999999999998 9.999999999999998
    vertex 19.999999999999996 5.0 9.999999999999998
  endloop
endfacet
facet normal -0.0 -0.0 1.0
  outer loop
    vertex 22.999999999999996 1.9999999999999998 9.999999999999998
    vertex 19.999999999999996 5.0 9.999999999999998
    vertex 19.999999999999996 1.9999999999999998 9.999999999999998
  endloop
endfacet
facet normal -0.0 -0.0 1.0
  outer loop
    vertex 19.999999999999996 5.0 9.999999999999998
    vertex 22.999999999999996 1.9999999999999998 9.999999999999998
    vertex 19.999999999999996 25.999999999999996 9.999999999999998
  endloop
endfacet
facet normal -0.0 -0.0 1.0
  outer loop
    vertex 19.999999999999996 25.999999999999996 9.999999999999998
    vertex 22.999999999999996 1.9999999999999998 9.999999999999998
    vertex 22.999999999999996 25.999999999999996 9.999999999999998
  endloop
endfacet
facet normal 1.0 -0.0 -0.0
  outer loop
    vertex 22.999999999999996 29.000000000000004 0.0
    vertex 22.999999999999996 25.999999999999996 9.999999999999998
    vertex 22.999999999999996 25.999999999999996 0.0
  endloop
endfacet
facet normal 1.0 -0.0 -0.0
  outer loop
    vertex 22.999999999999996 25.999999999999996 9.999999999999998
    vertex 22.999999999999996 29.000000000000004 0.0
    vertex 22.999999999999996 29.000000000000004 9.999999999999998
  endloop
endfacet
facet normal 1.0 0.0 0.0
  outer loop
    vertex 7.5 25.999999999999996 0.0
    vertex 7.5 24.499999999999993 9.999999999999998
    vertex 7.5 24.499999999999993 0.0
  endloop
endfacet
facet normal 1.0 0.0 0.0
  outer loop
    vertex 7.5 24.499999999999993 9.999999999999998
    vertex 7.5 25.999999999999996 0.0
    vertex 7.5 25.999999999999996 9.999999999999998
  endloop
endfacet
facet normal -1.0 -0.0 -0.0
  outer loop
    vertex 6.0 29.000000000000004 9.999999999999998
    vertex 6.0 25.999999999999996 0.0
    vertex 6.0 25.999999999999996 9.999999999999998
  endloop
endfacet
facet normal -1.0 -0.0 -0.0
  outer loop
    vertex 6.0 25.999999999999996 0.0
    vertex 6.0 29.000000000000004 9.999999999999998
    vertex 6.0 29.000000000000004 0.0
  endloop
endfacet
facet normal 0.0 -1.0 0.0
  outer loop
    vertex 19.999999999999996 1.9999999999999998 9.999999999999998
    vertex 0.0 1.9999999999999998 0.0
    vertex 19.999999999999996 1.9999999999999998 0.0
  endloop
endfacet
facet normal 0.0 -1.0 0.0
  outer loop
    vertex 0.0 1.9999999999999998 0.0
    vertex 19.999999999999996 1.9999999999999998 9.999999999999998
    vertex 0.0 1.9999999999999998 9.999999999999998
  endloop
endfacet
facet normal -0.0 1.0 -0.0
  outer loop
    vertex 6.0 29.000000000000004 9.999999999999998
    vertex 22.999999999999996 29.000000000000004 0.0
    vertex 6.0 29.000000000000004 0.0
  endloop
endfacet
facet normal -0.0 1.0 -0.0
  outer loop
    vertex 22.999999999999996 29.000000000000004 0.0
    vertex 6.0 29.000000000000004 9.999999999999998
    vertex 22.999999999999996 29.000000000000004 9.999999999999998
  endloop
endfacet
facet normal 0.0 0.0 -1.0
  outer loop
    vertex 19.999999999999996 5.0 0.0
    vertex 0.0 1.9999999999999998 0.0
    vertex 0.0 5.0 0.0
  endloop
endfacet
facet normal 0.0 0.0 -1.0
  outer loop
    vertex 0.0 1.9999999999999998 0.0
    vertex 19.999999999999996 5.0 0.0
    vertex 19.999999999999996 1.9999999999999998 0.0
  endloop
endfacet
facet normal 0.0 0.0 -1.0
  outer loop
    vertex 22.999999999999996 29.000000000000004 0.0
    vertex 6.0 25.999999999999996 0.0
    vertex 6.0 29.000000000000004 0.0
  endloop
endfacet
facet normal 0.0 0.0 -1.0
  outer loop
    vertex 6.0 25.999999999999996 0.0
    vertex 22.999999999999996 29.000000000000004 0.0
    vertex 7.5 25.999999999999996 0.0
  endloop
endfacet
facet normal 0.0 0.0 -1.0
  outer loop
    vertex 7.5 25.999999999999996 0.0
    vertex 22.999999999999996 29.000000000000004 0.0
    vertex 19.999999999999996 25.999999999999996 0.0
  endloop
endfacet
facet normal 0.0 0.0 -1.0
  outer loop
    vertex 19.999999999999996 25.999999999999996 0.0
    vertex 22.999999999999996 29.000000000000004 0.0
    vertex 22.999999999999996 25.999999999999996 0.0
  endloop
endfacet
facet normal 0.0 1.0 0.0
  outer loop
    vertex 0.0 5.0 9.999999999999998
    vertex 19.999999999999996 5.0 0.0
    vertex 0.0 5.0 0.0
  endloop
endfacet
facet normal 0.0 1.0 0.0
  outer loop
    vertex 19.999999999999996 5.0 0.0
    vertex 0.0 5.0 9.999999999999998
    vertex 19.999999999999996 5.0 9.999999999999998
  endloop
endfacet
facet normal -1.0 0.0 0.0
  outer loop
    vertex 6.0 25.999999999999996 9.999999999999998
    vertex 6.0 24.499999999999993 0.0
    vertex 6.0 24.499999999999993 9.999999999999998
  endloop
endfacet
facet normal -1.0 0.0 0.0
  outer loop
    vertex 6.0 24.499999999999993 0.0
    vertex 6.0 25.999999999999996 9.999999999999998
    vertex 6.0 25.999999999999996 0.0
  endloop
endfacet
facet normal -1.0 -0.0 2.819966482547898e-16
  outer loop
    vertex 19.999999999999996 25.999999999999996 9.999999999999998
    vertex 19.999999999999996 5.0 0.0
    vertex 19.999999999999996 5.0 9.999999999999998
  endloop
endfacet
facet normal -1.0 -0.0 2.819966482547898e-16
  outer loop
    vertex 19.999999999999996 5.0 0.0
    vertex 19.999999999999996 25.999999999999996 9.999999999999998
    vertex 19.999999999999996 25.999999999999996 0.0
  endloop
endfacet
facet normal 0.0 0.0 -1.0
  outer loop
    vertex 7.5 25.999999999999996 0.0
    vertex 6.0 24.499999999999993 0.0
    vertex 6.0 25.999999999999996 0.0
  endloop
endfacet
facet normal 0.0 0.0 -1.0
  outer loop
    vertex 6.0 24.499999999999993 0.0
    vertex 7.5 25.999999999999996 0.0
    vertex 7.5 24.499999999999993 0.0
  endloop
endfacet
facet normal -0.0 -1.0 -0.0
  outer loop
    vertex 22.999999999999996 1.9999999999999998 9.999999999999998
    vertex 19.999999999999996 1.9999999999999998 0.0
    vertex 22.999999999999996 1.9999999999999998 0.0
  endloop
endfacet
facet normal -0.0 -1.0 -0.0
  outer loop
    vertex 19.999999999999996 1.9999999999999998 0.0
    vertex 22.999999999999996 1.9999999999999998 9.999999999999998
    vertex 19.999999999999996 1.9999999999999998 9.999999999999998
  endloop
endfacet
endsolid KlammerFlat
